<?xml version="1.0" ?><svg viewBox="0 0 256 256" xmlns="http://www.w3.org/2000/svg"><rect fill="none" height="256" width="256"/><line fill="none" stroke="#000" stroke-linecap="round" stroke-linejoin="round" stroke-width="12" x1="152" x2="208" y1="96" y2="96"/><line fill="none" stroke="#000" stroke-linecap="round" stroke-linejoin="round" stroke-width="12" x1="152" x2="208" y1="160" y2="160"/><path d="M64,72V40a8,8,0,0,1,8-8H200a8,8,0,0,1,8,8V216a8,8,0,0,1-8,8H72a8,8,0,0,1-8-8V184" fill="none" stroke="#000" stroke-linecap="round" stroke-linejoin="round" stroke-width="12"/><polyline fill="none" points="64 104 76 152 92 116 108 152 120 104" stroke="#000" stroke-linecap="round" stroke-linejoin="round" stroke-width="12"/><rect fill="none" height="112" rx="8" stroke="#000" stroke-linecap="round" stroke-linejoin="round" stroke-width="12" width="120" x="32" y="72"/></svg>
