<?xml version="1.0" ?><svg viewBox="0 0 256 256" xmlns="http://www.w3.org/2000/svg"><rect fill="none" height="256" width="256"/><path d="M44,200H60a16,16,0,0,0,0-32H44v48" fill="none" stroke="#000" stroke-linecap="round" stroke-linejoin="round" stroke-width="12"/><polyline fill="none" points="108 216 108 168 144 216 144 168" stroke="#000" stroke-linecap="round" stroke-linejoin="round" stroke-width="12"/><path d="M204,194h12v11.8A21.5,21.5,0,0,1,198,216c-12.2,0-22-10.7-22-24s9.8-24,22-24a20.3,20.3,0,0,1,12,3.9" fill="none" stroke="#000" stroke-linecap="round" stroke-linejoin="round" stroke-width="12"/><path d="M48,128V40a8,8,0,0,1,8-8h96l56,56v40" fill="none" stroke="#000" stroke-linecap="round" stroke-linejoin="round" stroke-width="12"/><polyline fill="none" points="152 32 152 88 208 88" stroke="#000" stroke-linecap="round" stroke-linejoin="round" stroke-width="12"/></svg>
